<?xml version="1.0" encoding="UTF-8"?>
<svg version="1.1" xmlns="http://www.w3.org/2000/svg" width="1254" height="1254">
<path d="M0 0 C413.82 0 827.64 0 1254 0 C1254 413.82 1254 827.64 1254 1254 C840.18 1254 426.36 1254 0 1254 C0 840.18 0 426.36 0 0 Z " fill="#051E41" transform="translate(0,0)"/>
<path d="M0 0 C3.14195254 -0.1675539 6.24876871 -0.16497491 9.39494991 -0.11533546 C10.59507717 -0.1160656 11.79520443 -0.11679573 13.03169918 -0.11754799 C16.3233524 -0.11465902 19.61344196 -0.08956965 22.9048183 -0.0546782 C26.34409376 -0.02344291 29.78338958 -0.02048624 33.222785 -0.01455116 C39.73588273 0.00099577 46.24856134 0.04203514 52.76147443 0.09219629 C60.17609577 0.1480638 67.59073702 0.17556962 75.00551641 0.20067346 C90.25837313 0.25295074 105.5108116 0.34090885 120.76335812 0.45229149 C121.2120425 1.26696388 121.66072689 2.08163628 122.12300777 2.92099571 C123.82206187 6.00525066 125.52167464 9.08919645 127.22164059 12.17294884 C127.95090183 13.49609199 128.67995375 14.81935053 129.40877438 16.14273643 C135.14105614 26.55085954 140.95468053 36.91033167 146.81804562 47.24526024 C149.49365772 51.96606388 152.13575982 56.70463261 154.76335812 61.45229149 C158.45428018 68.12005335 162.19302788 74.75952212 165.95085812 81.38979149 C170.78900599 89.92685337 175.57100855 98.49357824 180.32585812 107.07729149 C185.74875104 116.86254215 191.24807672 126.59949626 196.81413937 136.30385399 C205.39491217 151.26652288 213.81440267 166.31833307 222.17668819 181.40395164 C226.17215425 188.60596027 230.20093024 195.78786197 234.26335812 202.95229149 C239.59654903 212.35936798 244.86012924 221.8037847 250.10491085 231.26039696 C254.329011 238.87517172 258.56895862 246.48080417 262.82585812 254.07729149 C263.40013546 255.10209618 263.9744128 256.12690086 264.56609249 257.18276024 C266.29815463 260.27280585 268.03066515 263.36259957 269.76335812 266.45229149 C272.07646055 270.5769541 274.38904604 274.70190549 276.70085812 278.82729149 C277.27441036 279.85064598 277.84796261 280.87400047 278.43889523 281.92836571 C282.13306098 288.52520068 285.80746145 295.13274013 289.47258663 301.74574852 C294.51627423 310.84585416 299.58068622 319.93050618 304.76335812 328.95229149 C312.54132089 342.49457287 320.07794822 356.1713977 327.63542843 369.83754539 C334.94596967 383.05541972 342.32038272 396.23151704 349.83367062 409.3349514 C356.39850005 420.7844881 362.85828677 432.29100309 369.29119015 443.81508446 C374.93970933 453.93370871 380.65210149 464.01380865 386.40959835 474.07085228 C396.38603597 491.4983321 406.19731929 509.01601961 415.94109249 526.57460594 C423.78424926 540.70213973 431.65659443 554.81312247 439.70085812 568.82729149 C444.10774213 576.5104741 448.45442065 584.22629003 452.76192379 591.96553612 C453.73659889 593.71671376 454.71272668 595.46708262 455.68889523 597.21742821 C458.84657808 602.90404615 461.91431118 608.60462264 464.76335812 614.45229149 C459.73341427 612.72860332 455.44919564 609.913442 450.95085812 607.13979149 C417.73619807 586.96805115 382.406206 569.49466107 345.76335812 556.45229149 C344.5306921 555.98726219 343.29802608 555.52223289 342.02800655 555.0431118 C335.20321407 552.47997562 328.29629558 550.15463583 321.38835812 547.82729149 C320.60910976 547.56450401 319.82986141 547.30171654 319.02699947 547.03096581 C305.64123007 542.54003412 292.15092744 538.68804456 278.4669714 535.21938133 C277.78296764 535.04555931 277.09896389 534.87173729 276.39423275 534.69264793 C274.55769091 534.22839687 272.71930665 533.7714512 270.88078976 533.31508446 C263.36358697 531.23459306 263.36358697 531.23459306 261.13274288 528.32704735 C260.42589352 527.01039085 260.42589352 527.01039085 259.70476437 525.66713524 C259.16134396 524.67439598 258.61792355 523.68165672 258.05803585 522.65883446 C257.4864172 521.58005028 256.91479855 520.5012661 256.32585812 519.38979149 C255.07884252 517.09921986 253.83143582 514.80886111 252.58367062 512.51869774 C251.94305464 511.33153123 251.30275546 510.14419372 250.66277218 508.95668602 C247.73156482 503.54864613 244.71577136 498.18896857 241.70085812 492.82729149 C240.53405293 490.74403573 239.36738575 488.66070267 238.20085812 486.57729149 C233.28091989 477.80358676 228.32765445 469.04876814 223.37224483 460.29506493 C220.12403707 454.55574304 216.88042784 448.81382082 213.63591671 443.07240868 C210.94159353 438.30496923 208.2462391 433.53811956 205.54851437 428.77260399 C204.47421915 426.87420976 203.40000062 424.97577213 202.32585812 423.07729149 C201.79146114 422.13297264 201.25706417 421.18865379 200.70647335 420.21571922 C197.89879134 415.24899322 195.10336019 410.27580784 192.32585812 405.29213524 C186.54972143 394.93049289 180.71735377 384.6140764 174.70085812 374.38979149 C169.43987298 365.44296646 164.42424691 356.38829091 159.51702023 347.24330711 C154.60870816 338.11198039 149.47435004 329.12118186 144.30339718 320.1368618 C137.31605417 307.95664245 130.441899 295.71080796 123.63518429 283.42885399 C112.49907366 263.33896374 101.28968013 243.28259351 89.84538937 223.36635399 C81.89278978 209.52547518 74.17012633 195.56448879 66.4825964 181.57533836 C64.25445176 177.52784813 62.01272587 173.48801942 59.76335812 169.45229149 C56.31085777 173.47629416 53.83077233 177.69135382 51.32585812 182.32729149 C50.43743601 183.94887909 49.54806701 185.56994818 48.65788937 187.19057274 C48.18818722 188.0473159 47.71848507 188.90405907 47.23454952 189.78676414 C44.69747445 194.383476 42.10345134 198.94781146 39.51335812 203.51479149 C34.90706066 211.64788127 30.32532904 219.79425779 25.76335812 227.95229149 C20.75360707 236.91022982 15.71715315 245.85253288 10.66008663 254.78383446 C6.65103076 261.8690709 2.67207441 268.97078986 -1.29914188 276.07729149 C-6.02665846 284.53610219 -10.80604966 292.96260302 -15.63190556 301.36562157 C-19.695117 308.46036184 -23.65744266 315.60885046 -27.61164188 322.76479149 C-32.49736019 331.60555545 -37.48817733 340.37220695 -42.61164188 349.07729149 C-46.8678262 356.31204364 -50.97670591 363.58303287 -54.84674931 371.03090477 C-59.49872096 379.94833411 -64.53605537 388.65104289 -69.50422001 397.3946743 C-72.41293903 402.52838302 -75.29369498 407.67768224 -78.17414188 412.82729149 C-79.04341312 414.38045067 -79.04341312 414.38045067 -79.9302454 415.9649868 C-82.89264925 421.25900714 -85.85243166 426.55448656 -88.81086063 431.85072899 C-94.72492593 442.4325975 -100.67293854 452.9924145 -106.7024622 463.50893211 C-113.60495401 475.56437325 -120.35737958 487.7047056 -127.1243372 499.83656883 C-128.38529303 502.09715761 -129.64684278 504.35741521 -130.90900517 506.61733055 C-132.08845486 508.72918517 -133.26661031 510.84176338 -134.44318485 512.95522118 C-135.5165603 514.87660484 -136.60100763 516.79185409 -137.69757938 518.70009422 C-138.71837808 520.52551677 -139.68339924 522.38333187 -140.58820438 524.26894188 C-143.07743774 529.15450685 -144.93300839 531.85561282 -150.23664188 533.64369774 C-152.22760285 534.13862399 -154.22880912 534.59350163 -156.23664188 535.01479149 C-158.47326336 535.56172511 -160.70890141 536.11269198 -162.94367313 536.66713524 C-164.12397099 536.94927879 -165.30426884 537.23142235 -166.52033329 537.52211571 C-172.40045696 538.99388493 -178.19404181 540.73490979 -183.99372196 542.49352074 C-185.86245208 543.05863611 -187.73407712 543.61415093 -189.60578251 544.1693325 C-202.87597822 548.14297062 -215.81935144 552.9626836 -228.73664188 557.95229149 C-229.39362064 558.20596489 -230.0505994 558.45963829 -230.72748661 558.72099876 C-259.13285293 569.72295143 -286.84041155 582.12431594 -313.4758997 596.92494774 C-316.22969534 598.44844841 -318.99295877 599.95314758 -321.76007938 601.45229149 C-322.64961308 601.93585106 -323.53914677 602.41941063 -324.45563602 602.91762352 C-326.12004956 603.82229487 -327.78579096 604.72452989 -329.45319462 605.62367821 C-334.92237501 608.61192752 -340.1029362 611.92015576 -345.23664188 615.45229149 C-345.89664188 615.12229149 -346.55664188 614.79229149 -347.23664188 614.45229149 C-346.94644169 613.94705956 -346.65624149 613.44182762 -346.35724735 612.92128563 C-338.48985516 599.21387947 -330.73064506 585.44845288 -323.02326298 571.65053368 C-320.07605649 566.37471993 -317.12567006 561.10068849 -314.17414188 555.82729149 C-313.5927747 554.78830711 -313.01140751 553.74932274 -312.41242313 552.67885399 C-308.58334424 545.84121311 -304.7276714 539.0190883 -300.86164188 532.20229149 C-295.54698193 522.82809423 -290.33680502 513.39822765 -285.14508915 503.95567894 C-280.30730278 495.16058217 -275.39571725 486.41197991 -270.39264774 477.70961571 C-267.29347741 472.31584189 -264.24505562 466.89717262 -261.23664188 461.45229149 C-257.70720857 455.06657148 -254.11672073 448.71882476 -250.48664188 442.38979149 C-245.44283867 433.59392059 -240.47338994 424.75821559 -235.52765751 415.90688133 C-231.53530404 408.76400195 -227.51921793 401.63503227 -223.48664188 394.51479149 C-219.32769014 387.16846671 -215.1971255 379.80765389 -211.10578251 372.42348289 C-205.78865949 362.83018878 -200.41815171 353.2667578 -195.05548954 343.69887352 C-193.26424307 340.50155868 -191.47474457 337.30327241 -189.68586063 334.10463524 C-184.07976562 324.08246594 -178.45979056 314.0687609 -172.79914188 304.07729149 C-165.04918041 290.39298548 -157.43012046 276.63619885 -149.81134892 262.87856102 C-144.36660751 253.04668986 -138.86862619 243.24668485 -133.33161259 233.46645164 C-126.92765576 222.15021522 -120.58303026 210.80088008 -114.23664188 199.45229149 C-107.44834487 187.31348349 -100.65500642 175.17809691 -93.79914188 163.07729149 C-89.06840262 154.72603688 -84.39035822 146.34669462 -79.73664188 137.95229149 C-73.49038534 126.68650773 -67.17831061 115.45975949 -60.82502079 104.2540493 C-51.2417887 87.35008811 -41.72087896 70.4119697 -32.23664188 53.45229149 C-25.19360597 40.8579603 -18.14436812 28.26731761 -11.04914188 15.70229149 C-10.5082996 14.74371239 -9.96745731 13.78513329 -9.41022587 12.79750633 C-8.90563847 11.90499168 -8.40105106 11.01247704 -7.88117313 10.09291649 C-7.44136112 9.314645 -7.00154911 8.53637352 -6.54840946 7.73451805 C-6.11552616 6.98138329 -5.68264286 6.22824852 -5.23664188 5.45229149 C-4.95448826 4.59192787 -4.67233463 3.73156425 -4.3816309 2.84512901 C-2.23664188 0.45229149 -2.23664188 0.45229149 0 0 Z " fill="#FCFCFC" transform="translate(568.2366418838501,238.54770851135254)"/>
<path d="M0 0 C1.28349335 -0.00315216 2.56698669 -0.00630432 3.88937378 -0.009552 C5.28448521 -0.00775848 6.67959633 -0.00570662 8.07470703 -0.00341797 C9.53321346 -0.00409355 10.99171978 -0.00506569 12.45022583 -0.00631714 C15.51500515 -0.00779052 18.57975533 -0.0056567 21.64453125 -0.00097656 C25.49694933 0.00463074 29.34929711 0.00138536 33.20171261 -0.00439358 C58.99104527 -0.03772475 84.47768661 0.770581 110.14501953 3.44189453 C111.77321121 3.60854614 111.77321121 3.60854614 113.43429565 3.77856445 C137.96962891 6.29327804 162.16894961 9.41268592 186.32324219 14.48828125 C190.70148677 15.38384678 195.09463646 16.19217225 199.48852539 17.00683594 C209.66315841 18.90106929 219.68204089 21.04382174 229.65283203 23.82080078 C233.06333602 24.77038313 236.4897825 25.63718737 239.92790222 26.48114014 C249.11218735 28.73853266 258.1998685 31.26451454 267.27001953 33.94189453 C268.01374817 34.16104523 268.75747681 34.38019592 269.52374268 34.60598755 C280.14725126 37.74668403 290.63579508 41.05941036 300.94189453 45.13964844 C303.88658526 46.29820591 306.84368452 47.4221382 309.80126953 48.54736328 C371.75971047 72.29110395 431.45654245 104.34658438 482.45751953 147.12939453 C484.31083377 148.63044762 486.16501685 150.13042853 488.02001953 151.62939453 C492.42217748 155.2288798 496.67887377 158.95697231 500.87548828 162.79345703 C502.98357368 164.70062052 505.11262728 166.57367597 507.25830078 168.43798828 C511.40796238 172.0609938 515.44614857 175.79191575 519.45751953 179.56689453 C520.50734009 180.55411499 520.50734009 180.55411499 521.57836914 181.5612793 C528.15140517 187.75880085 534.56882913 193.97474899 540.44970703 200.84033203 C542.05306569 202.66828568 543.68056126 204.45501306 545.34033203 206.23095703 C545.84395264 206.77139648 546.34757324 207.31183594 546.86645508 207.86865234 C547.87437184 208.9472408 548.88617908 210.02220862 549.90209961 211.09326172 C553.45751953 214.90810598 553.45751953 214.90810598 553.45751953 217.12939453 C539.92751953 217.12939453 526.39751953 217.12939453 512.45751953 217.12939453 C512.45751953 216.46939453 512.45751953 215.80939453 512.45751953 215.12939453 C511.86777344 214.85571045 511.27802734 214.58202637 510.67041016 214.30004883 C508.52874501 213.16707394 506.89023787 211.96598951 505.05126953 210.39892578 C504.40053467 209.85107422 503.7497998 209.30322266 503.0793457 208.73876953 C502.37914307 208.14580078 501.67894043 207.55283203 500.95751953 206.94189453 C473.96698984 184.4297978 444.70927083 164.94412011 414.45751953 147.12939453 C413.28455322 146.43257568 413.28455322 146.43257568 412.08789062 145.72167969 C356.7904007 112.94980191 295.84749679 86.86682812 233.45751953 71.12939453 C232.23436035 70.8208252 231.01120117 70.51225586 229.75097656 70.19433594 C212.64935856 65.91698871 195.44126759 62.216484 178.14501953 58.81689453 C177.31204346 58.6519046 176.47906738 58.48691467 175.62084961 58.31692505 C156.27609594 54.50365679 136.82134235 51.915165 117.22094727 49.82177734 C114.28766506 49.50629237 111.35607972 49.1774075 108.42431641 48.84814453 C84.22974006 46.20058628 59.99770535 45.94071812 35.68334961 45.9440918 C32.83693038 45.94417274 29.9906732 45.93725437 27.14428711 45.92358398 C-37.87932769 45.61676535 -102.29815238 53.72339802 -165.29248047 69.75439453 C-166.1985907 69.9842807 -167.10470093 70.21416687 -168.03826904 70.45101929 C-177.77634229 72.9350948 -187.34915657 75.61990407 -196.8527832 78.89648438 C-200.84373512 80.2300586 -204.86147988 81.40865772 -208.90576172 82.56689453 C-217.63671932 85.08940369 -226.18911704 88.02879333 -234.72998047 91.12939453 C-235.5031662 91.40940308 -236.27635193 91.68941162 -237.07296753 91.97790527 C-295.75415174 113.31052625 -354.87922721 142.89898279 -404.64355469 180.70166016 C-406.78249221 182.30985077 -408.94349684 183.88513541 -411.10888672 185.45751953 C-420.1931626 192.06326531 -429.07305324 198.84387735 -437.73388672 205.99658203 C-438.35166992 206.48545898 -438.96945312 206.97433594 -439.60595703 207.47802734 C-441.62451314 209.12818498 -441.62451314 209.12818498 -443.48681641 211.27294922 C-449.08480167 216.89081193 -453.84469815 217.83197455 -461.48779297 217.91064453 C-465.21804629 217.88700987 -468.9398581 217.76461971 -472.66748047 217.62939453 C-474.59709392 217.58920775 -476.52678807 217.55271616 -478.45654297 217.52001953 C-483.15386924 217.43245108 -487.84727484 217.29474107 -492.54248047 217.12939453 C-491.1417507 213.96343456 -489.49081353 211.82926627 -487.04589844 209.38989258 C-486.33110321 208.67202072 -485.61630798 207.95414886 -484.87985229 207.21452332 C-484.10594147 206.447798 -483.33203064 205.68107269 -482.53466797 204.89111328 C-481.73521759 204.09212112 -480.93576721 203.29312897 -480.11209106 202.46992493 C-478.41807452 200.77892925 -476.72162844 199.09036449 -475.02294922 197.40405273 C-472.44301667 194.84225127 -469.87105086 192.27266476 -467.30029297 189.70166016 C-465.64971993 188.05600771 -463.99869245 186.41081089 -462.34716797 184.76611328 C-461.58540253 184.00546066 -460.82363708 183.24480804 -460.03878784 182.46110535 C-455.3602009 177.82320037 -450.53615985 173.424219 -445.54248047 169.12939453 C-443.93479674 167.67493936 -442.33008332 166.21718558 -440.72998047 164.75439453 C-431.07784405 156.0571879 -420.81343894 148.07748639 -410.54248047 140.12939453 C-409.85138184 139.5910498 -409.1602832 139.05270508 -408.44824219 138.49804688 C-397.67235855 130.13334826 -386.57304108 122.32286725 -375.22998047 114.75439453 C-374.6106665 114.34005157 -373.99135254 113.92570862 -373.35327148 113.49880981 C-320.56438536 78.25398116 -261.87489462 51.63836546 -200.98974609 33.85449219 C-198.64084254 33.15853812 -196.30189434 32.4367322 -193.96435547 31.70361328 C-183.39119905 28.40821435 -172.71954157 25.57334138 -161.97998047 22.87939453 C-161.2952063 22.7066803 -160.61043213 22.53396606 -159.90490723 22.35601807 C-152.64983077 20.53168669 -145.40522842 18.83583481 -138.02954102 17.56787109 C-134.07154664 16.87006429 -130.15542122 15.98869707 -126.22998047 15.12939453 C-119.218104 13.61601475 -112.25329129 12.41300802 -105.13232422 11.52392578 C-102.56457813 11.26853166 -102.56457813 11.26853166 -100.54248047 10.12939453 C-98.94220084 9.94575588 -97.3366329 9.80715949 -95.72998047 9.69189453 C-88.43458255 9.08235737 -81.22650377 7.98008547 -74.0246582 6.67211914 C-65.5487696 5.17123277 -57.04811631 4.31480244 -48.47998047 3.56689453 C-47.01407826 3.43555263 -45.54817657 3.30420493 -44.08227539 3.17285156 C-35.44715205 2.41013 -26.81356234 1.75106903 -18.1496582 1.42016602 C-15.29211688 1.30751791 -12.54520442 1.1298833 -9.72750854 0.6242981 C-6.43056197 0.11200415 -3.33525499 0.00236435 0 0 Z " fill="#FBFBFB" transform="translate(596.54248046875,775.87060546875)"/>
<path d="M0 0 C0.66 0.33 1.32 0.66 2 1 C0.6238464 4.09179136 -0.95158445 6.19638753 -3.34814453 8.57519531 C-4.02869904 9.25559875 -4.70925354 9.9360022 -5.41043091 10.63702393 C-6.14381683 11.36008728 -6.87720276 12.08315063 -7.6328125 12.828125 C-8.38464813 13.57713074 -9.13648376 14.32613647 -9.91110229 15.09783936 C-12.31107901 17.4866302 -14.71792009 19.86836897 -17.125 22.25 C-18.75436352 23.86933169 -20.38327534 25.48911802 -22.01171875 27.109375 C-26.00176995 31.07908954 -30.00102682 35.03919305 -34 39 C-22.12 39.33 -10.24 39.66 2 40 C2 40.33 2 40.66 2 41 C-11.53 41 -25.06 41 -39 41 C-37.24570357 37.49140714 -36.06374713 35.81841552 -33.37646484 33.14941406 C-32.63584808 32.40894836 -31.89523132 31.66848267 -31.13217163 30.90557861 C-30.33316437 30.11689392 -29.5341571 29.32820923 -28.7109375 28.515625 C-27.89251373 27.70003113 -27.07408997 26.88443726 -26.23086548 26.04412842 C-23.61690027 23.44135438 -20.99606495 20.84562238 -18.375 18.25 C-16.60110546 16.4861366 -14.82766234 14.7218191 -13.0546875 12.95703125 C-8.70834858 8.63273864 -4.35634919 4.3142067 0 0 Z " fill="#DADDE3" transform="translate(143,952)"/>
<path d="M0 0 C1 3 1 3 -0.36328125 5.77734375 C-1.00652344 6.82019531 -1.64976562 7.86304688 -2.3125 8.9375 C-5.33506331 13.87071931 -5.33506331 13.87071931 -8 19 C-8.66 19 -9.32 19 -10 19 C-8.40376856 14.60616294 -6.21975667 10.71004193 -3.875 6.6875 C-3.50246094 6.04232422 -3.12992187 5.39714844 -2.74609375 4.73242188 C-1.83367787 3.15324055 -0.91724491 1.57638136 0 0 Z " fill="#DADEE4" transform="translate(277,754)"/>
<path d="M0 0 C2.2477975 2.05233685 3.0022242 3.00667261 4 6 C3.236875 6.28875 2.47375 6.5775 1.6875 6.875 C-1.15029308 7.96269013 -1.15029308 7.96269013 -4 10 C-4.33 9.34 -4.66 8.68 -5 8 C-4.00390625 6.0546875 -4.00390625 6.0546875 -2.5625 3.875 C-2.08941406 3.15054687 -1.61632812 2.42609375 -1.12890625 1.6796875 C-0.75636719 1.12539063 -0.38382813 0.57109375 0 0 Z " fill="#132646" transform="translate(627,407)"/>
<path d="M0 0 C4.95 0 9.9 0 15 0 C15 0.66 15 1.32 15 2 C16.98 2 18.96 2 21 2 C21 2.33 21 2.66 21 3 C13.83437211 3.28100502 7.05453001 2.20443195 0 1 C0 0.67 0 0.34 0 0 Z " fill="#374665" transform="translate(739,783)"/>
<path d="M0 0 C3.76119476 0.62393651 6.18960042 2.34773715 9.25 4.5625 C10.14203125 5.20316406 11.0340625 5.84382812 11.953125 6.50390625 C12.96632813 7.24447266 12.96632813 7.24447266 14 8 C13.01 8.33 12.02 8.66 11 9 C8.30078125 7.63671875 8.30078125 7.63671875 5.3125 5.6875 C4.31863281 5.05199219 3.32476563 4.41648437 2.30078125 3.76171875 C1.16189453 2.88966797 1.16189453 2.88966797 0 2 C0 1.34 0 0.68 0 0 Z " fill="#152345" transform="translate(1061,956)"/>
<path d="M0 0 C0.66 0 1.32 0 2 0 C2.33 1.65 2.66 3.3 3 5 C1.02 6.32 -0.96 7.64 -3 9 C-3.66 8.67 -4.32 8.34 -5 8 C-4.21718695 6.66144944 -3.42348123 5.32926356 -2.625 4 C-2.18414062 3.2575 -1.74328125 2.515 -1.2890625 1.75 C-0.86367187 1.1725 -0.43828125 0.595 0 0 Z " fill="#DFE2E8" transform="translate(226,845)"/>
<path d="M0 0 C-1 3 -1 3 -3.6875 4.6875 C-7.08981286 6.03558623 -9.38327271 6.25833766 -13 6 C-9.40464172 2.97989905 -4.81374718 0 0 0 Z " fill="#1B2F50" transform="translate(304,811)"/>
<path d="M0 0 C6.93 0.33 13.86 0.66 21 1 C21 1.33 21 1.66 21 2 C8.625 2.495 8.625 2.495 -4 3 C-2.68 2.67 -1.36 2.34 0 2 C0 1.34 0 0.68 0 0 Z " fill="#525F7A" transform="translate(563,776)"/>
<path d="M0 0 C2.40575607 2.18517099 3.79535581 4.25919671 5.1875 7.1875 C5.53167969 7.90292969 5.87585938 8.61835938 6.23046875 9.35546875 C6.48441406 9.89816406 6.73835937 10.44085938 7 11 C6.34 11.66 5.68 12.32 5 13 C4.15615325 11.58957044 3.32530504 10.17135868 2.5 8.75 C2.0359375 7.96109375 1.571875 7.1721875 1.09375 6.359375 C0 4 0 4 0 0 Z " fill="#14274A" transform="translate(665,475)"/>
<path d="M0 0 C-0.33 0.99 -0.66 1.98 -1 3 C-6.28 2.67 -11.56 2.34 -17 2 C-17 1.67 -17 1.34 -17 1 C-5.47835991 -0.14806378 -5.47835991 -0.14806378 0 0 Z " fill="#E3E7EC" transform="translate(571,778)"/>
<path d="M0 0 C1.12894876 0.93274109 2.25300876 1.87140122 3.375 2.8125 C4.00148438 3.33457031 4.62796875 3.85664062 5.2734375 4.39453125 C7 6 7 6 9 9 C6 9 6 9 4.39453125 7.79296875 C3.87246094 7.26316406 3.35039063 6.73335937 2.8125 6.1875 C2.01779297 5.40439453 2.01779297 5.40439453 1.20703125 4.60546875 C0 3 0 3 0 0 Z " fill="#ECEFF1" transform="translate(1132,973)"/>
<path d="M0 0 C1.43861294 0.08746284 2.87597508 0.19565348 4.3125 0.3125 C5.11300781 0.37050781 5.91351562 0.42851563 6.73828125 0.48828125 C9 1 9 1 12 4 C6.06 3.01 6.06 3.01 0 2 C0 1.34 0 0.68 0 0 Z " fill="#2F3F5E" transform="translate(761,785)"/>
<path d="M0 0 C0.99 0 1.98 0 3 0 C6.22265625 5.17578125 6.22265625 5.17578125 7 7 C6.67 7.99 6.34 8.98 6 10 C3.47650757 6.87567603 1.72743854 3.61939504 0 0 Z " fill="#112649" transform="translate(977,753)"/>
<path d="M0 0 C3 1 3 1 4.16796875 2.84765625 C4.50441406 3.57855469 4.84085938 4.30945313 5.1875 5.0625 C5.53167969 5.79597656 5.87585938 6.52945313 6.23046875 7.28515625 C6.48441406 7.85105469 6.73835937 8.41695312 7 9 C6.01 9 5.02 9 4 9 C0 2.25 0 2.25 0 0 Z " fill="#132648" transform="translate(689,520)"/>
<path d="M0 0 C0.99 0 1.98 0 3 0 C3.99 2.31 4.98 4.62 6 7 C2.34683329 5.75023244 1.21934164 5.32901247 -1 2 C-0.67 1.34 -0.34 0.68 0 0 Z " fill="#E2E4EA" transform="translate(1027,846)"/>
<path d="M0 0 C0.66 0 1.32 0 2 0 C2.69937202 1.4317616 3.38412718 2.87067032 4.0625 4.3125 C4.63677734 5.51326172 4.63677734 5.51326172 5.22265625 6.73828125 C6 9 6 9 5 12 C4.15885829 10.56705502 3.32734313 9.12845595 2.5 7.6875 C1.80390625 6.48673828 1.80390625 6.48673828 1.09375 5.26171875 C0 3 0 3 0 0 Z " fill="#16274A" transform="translate(726,304)"/>
<path d="M0 0 C1.65 0.33 3.3 0.66 5 1 C1.83759418 3.10827055 0.49342531 3.33817465 -3.1875 3.625 C-4.53908203 3.73714844 -4.53908203 3.73714844 -5.91796875 3.8515625 C-6.94857422 3.92503906 -6.94857422 3.92503906 -8 4 C-8.33 3.34 -8.66 2.68 -9 2 C-3.375 0.875 -3.375 0.875 0 2 C0 1.34 0 0.68 0 0 Z " fill="#2E3F5E" transform="translate(456,792)"/>
<path d="M0 0 C2.7972908 2.06756277 3.02692273 3.14440371 3.6875 6.6875 C3.790625 7.780625 3.89375 8.87375 4 10 C1.67527795 7.14693203 0.2491742 4.45925163 -1 1 C-0.67 0.67 -0.34 0.34 0 0 Z " fill="#192B4D" transform="translate(953,707)"/>
<path d="M0 0 C0.99 0.33 1.98 0.66 3 1 C0.6875 3.5 0.6875 3.5 -2 6 C-2.99 6 -3.98 6 -5 6 C-3.35 4.02 -1.7 2.04 0 0 Z " fill="#E3E5EB" transform="translate(161,936)"/>
<path d="M0 0 C0.33 0 0.66 0 1 0 C1 1.98 1 3.96 1 6 C0.34 6 -0.32 6 -1 6 C-1.33 6.99 -1.66 7.98 -2 9 C-2.66 9 -3.32 9 -4 9 C-2.80100302 5.9168649 -1.52299523 2.93720508 0 0 Z " fill="#223454" transform="translate(497,637)"/>
<path d="M0 0 C0.66 0.99 1.32 1.98 2 3 C1.01 4.485 1.01 4.485 0 6 C-0.68177416 7.32567199 -1.35191436 8.65753688 -2 10 C-2.66 9.34 -3.32 8.68 -4 8 C-2.68 5.36 -1.36 2.72 0 0 Z " fill="#E4E7EC" transform="translate(353,618)"/>
<path d="M0 0 C2.97 0.33 5.94 0.66 9 1 C8.67 1.66 8.34 2.32 8 3 C5.36 2.67 2.72 2.34 0 2 C0 1.34 0 0.68 0 0 Z " fill="#283756" transform="translate(819,797)"/>
<path d="M0 0 C0.66 0.33 1.32 0.66 2 1 C-3.14285714 6.57142857 -3.14285714 6.57142857 -7 7 C-4.66666667 4.66666667 -2.33333333 2.33333333 0 0 Z " fill="#D7DBE2" transform="translate(178,922)"/>
<path d="M0 0 C2.40072955 2.88087546 4.47291037 5.56404834 6 9 C5.34 9.66 4.68 10.32 4 11 C3.32591692 9.73308493 2.66099503 8.46129251 2 7.1875 C1.62875 6.47980469 1.2575 5.77210938 0.875 5.04296875 C0 3 0 3 0 0 Z " fill="#162342" transform="translate(922,653)"/>
<path d="M0 0 C0.6875 1.6875 0.6875 1.6875 1 4 C-0.3125 6.75 -0.3125 6.75 -2 9 C-2.66 9 -3.32 9 -4 9 C-2.94124926 5.59687262 -1.99097846 2.98646769 0 0 Z " fill="#313E5C" transform="translate(520,596)"/>
<path d="M0 0 C0.66 0.33 1.32 0.66 2 1 C1.67 1.99 1.34 2.98 1 4 C-0.9375 4.8125 -0.9375 4.8125 -3 5 C-3.66 4.34 -4.32 3.68 -5 3 C-2.625 1.4375 -2.625 1.4375 0 0 Z " fill="#1E3152" transform="translate(274,905)"/>
<path d="M0 0 C0.66 0.99 1.32 1.98 2 3 C0.625 5 0.625 5 -1 7 C-1.66 7 -2.32 7 -3 7 C-1.125 1.125 -1.125 1.125 0 0 Z " fill="#D8DDE3" transform="translate(529,305)"/>
</svg>
